<svg width="512" height="512" viewBox="0 0 512 512" fill="none" xmlns="http://www.w3.org/2000/svg">
<g clip-path="url(#clip0_26_1411)">
<rect width="512" height="512" fill="white"/>
<path d="M244.95 16C215.233 16 187.774 31.8591 172.923 57.5999L95.6009 191.625C60.2162 252.959 104.481 329.6 175.29 329.6H208L316.977 140.708C348.959 85.2719 308.95 16 244.95 16ZM208 329.6H351.947C415.982 329.6 456.013 398.91 424.013 454.377C409.155 480.132 381.681 496 351.947 496H271.29C200.481 496 156.216 419.359 191.601 358.026L208 329.6Z" fill="black"/>
<path d="M208 329.6H16L106.462 172.8L208 329.6Z" fill="black"/>
<path d="M388.923 16L208 329.6L253.6 16H388.923Z" fill="black"/>
<path d="M304 496H112L202.462 339.2L304 496Z" fill="black"/>
<path d="M496 329.6H208L419.399 462.4L496 329.6Z" fill="black"/>
</g>
<defs>
<clipPath id="clip0_26_1411">
<rect width="512" height="512" fill="white"/>
</clipPath>
</defs>
</svg>
