<svg width="512" height="512" viewBox="0 0 512 512" fill="none" xmlns="http://www.w3.org/2000/svg">
<path d="M352.062 329.601H496L419.399 462.4L418.95 462.118C403.384 483.273 378.573 496 351.946 496H112L191.571 358.075C191.581 358.059 191.591 358.042 191.601 358.025L208 329.6H351.946C351.985 329.6 352.023 329.601 352.062 329.601Z" fill="#FAFAFA"/>
<path d="M208 329.6H16L95.5713 191.675C95.5809 191.658 95.591 191.642 95.6006 191.625L172.924 57.5996C187.774 31.859 215.233 16 244.95 16C247.864 16 250.727 16.1455 253.537 16.4248L253.6 16H388.924L208 329.6Z" fill="#FAFAFA"/>
</svg>
